<svg width="62" height="62" viewBox="0 0 62 62" fill="none" xmlns="http://www.w3.org/2000/svg">
<path d="M39.8035 0.00012207C45.5598 0.0371533 50.9648 2.21508 55.0223 6.13196C59.0946 10.0638 61.3704 15.3205 61.4295 20.9337C61.5063 28.21 57.8004 34.9254 51.5174 38.8966C48.9783 40.5016 47.678 43.4215 48.282 46.1622C48.5005 47.1546 48.5952 48.1775 48.5633 49.2013C48.4648 52.3484 47.1611 55.3337 44.8934 57.6066C42.6383 59.8671 39.6291 61.2197 36.4207 61.4152C36.1493 61.432 35.8777 61.4396 35.6072 61.4396C32.1612 61.4395 28.8432 60.1068 26.3983 57.7159C23.7442 55.1201 22.6444 51.2922 23.2176 46.6456C24.2802 38.0362 23.304 31.7248 19.8494 24.8615C18.2121 21.608 17.8342 18.2694 18.7557 15.2072C20.0592 10.877 22.8286 6.98788 26.5545 4.25696C30.3959 1.44166 34.9726 -0.0298615 39.8035 0.00012207ZM39.7811 3.60071C35.735 3.58055 31.8966 4.80549 28.6834 7.16028C25.5841 9.43132 23.282 12.658 22.2029 16.2443C21.3803 18.9775 22.2178 21.5586 23.0652 23.2423C27.7841 32.6167 27.5966 40.5564 26.7908 47.0861C26.354 50.6255 27.0686 53.3361 28.9149 55.1417C30.826 57.0106 33.4809 57.9869 36.202 57.8214C38.5306 57.6798 40.7129 56.7004 42.3455 55.0636C43.9649 53.4403 44.8953 51.3178 44.9647 49.088C44.9876 48.3626 44.9206 47.6386 44.7664 46.9376C44.3009 44.8254 44.5278 42.6479 45.4217 40.6407C46.2936 38.6835 47.7361 37.0278 49.5936 35.8536C54.8139 32.5542 57.893 26.9909 57.8299 20.9718C57.7811 16.3298 55.8954 11.9791 52.5213 8.7218C49.1324 5.45056 44.608 3.63175 39.7811 3.60071ZM11.1297 24.9786C11.8211 24.2648 12.9612 24.2472 13.6746 24.9386C17.156 28.3117 19.0731 32.8077 19.0731 37.5978C19.073 42.3878 17.1555 46.8839 13.6746 50.257C13.325 50.5956 12.8734 50.7638 12.4227 50.7638C11.9526 50.7638 11.4827 50.5811 11.1297 50.2169C10.4378 49.503 10.4558 48.3629 11.1697 47.671C13.945 44.9819 15.4734 41.4047 15.4734 37.5978C15.4734 33.7912 13.945 30.2137 11.1697 27.5245C10.4558 26.8327 10.4378 25.6925 11.1297 24.9786ZM5.86896 30.0763C6.56034 29.3625 7.69953 29.3445 8.41388 30.0363C10.4947 32.0528 11.6414 34.7384 11.6414 37.5978C11.6413 40.4575 10.4946 43.1428 8.41388 45.1593C8.06426 45.4976 7.61274 45.6661 7.16193 45.6661C6.69135 45.6661 6.22191 45.4834 5.86896 45.1193C5.17708 44.4054 5.19509 43.2652 5.909 42.5734C7.28404 41.2413 8.04076 39.4744 8.04083 37.5978C8.04083 35.7215 7.28409 33.9543 5.909 32.6222C5.19509 31.9303 5.17708 30.7902 5.86896 30.0763ZM0.531067 33.799C1.23655 33.0985 2.37627 33.1019 3.07697 33.8068C5.03807 35.7805 5.03778 38.992 3.07697 40.9659C2.7254 41.3198 2.26228 41.4972 1.79962 41.4972C1.34088 41.4972 0.882101 41.3237 0.531067 40.9747C-0.173933 40.2739 -0.177527 39.1338 0.523254 38.4288C1.09373 37.8542 1.09371 36.9195 0.523254 36.3448C-0.177527 35.6398 -0.173933 34.4993 0.531067 33.799ZM39.6561 8.52454C46.8114 8.52454 52.6334 14.1903 52.6336 21.1544C52.6336 22.1486 51.827 22.9542 50.8328 22.9542C49.8391 22.9542 49.033 22.1486 49.033 21.1544C49.0329 16.1755 44.8263 12.1251 39.6561 12.1251C35.2073 12.1253 31.4717 15.1248 30.5164 19.1339C31.6676 19.177 32.8072 19.4648 33.8318 19.9884C36.5238 21.3637 38.2046 24.2712 38.0125 27.2247C37.8236 30.1318 35.825 32.794 33.0399 33.8497C32.8299 33.9289 32.614 33.9669 32.4022 33.9669C31.6757 33.9669 30.9915 33.5242 30.7186 32.8048C30.3666 31.8753 30.8341 30.8361 31.7635 30.4835C33.2532 29.9191 34.3204 28.5152 34.4197 26.9913C34.5195 25.4511 33.6256 23.9247 32.1951 23.1935C31.2347 22.7032 30.0357 22.5945 28.9881 22.9025C28.444 23.0623 27.8563 22.957 27.4022 22.6173C26.948 22.2775 26.6805 21.743 26.6805 21.1759V21.1544C26.6806 14.1904 32.5013 8.52472 39.6561 8.52454Z" fill="#FF6565"/>
</svg>
