<svg width="161" height="32" viewBox="0 0 161 32" fill="none" xmlns="http://www.w3.org/2000/svg">
<path fill-rule="evenodd" clip-rule="evenodd" d="M130.38 16.2241V22.2361H127.554V16.2241C127.554 13.2181 129.858 10.5541 132.936 10.5541C136.014 10.5541 138.318 13.2181 138.318 16.2241V22.2361H135.492V16.2241C135.492 14.7841 134.448 13.3981 132.936 13.3981C131.424 13.3981 130.38 14.7841 130.38 16.2241ZM71.7905 22.2361V19.6621H76.9205V22.2361H79.7645V16.2601C79.7645 13.1101 77.3345 10.5721 74.3465 10.5721C71.3585 10.5721 68.9285 13.1101 68.9285 16.2601V22.2361H71.7905ZM49.7045 17.9701V22.2361H46.8425V10.8421H49.7045V15.1081H54.1325V10.8421H56.9945V22.2361H54.1325V17.9701H49.7045ZM68.0285 19.3741V22.2361H63.3125C60.2165 22.2361 57.8945 19.5541 57.8945 16.5481C57.8945 13.5241 60.2165 10.8421 63.3125 10.8421H68.0285V13.7041H63.3125C62.3585 13.7041 61.5305 14.2981 61.0985 15.1081H65.8865V17.9701H61.0985C61.5305 18.7981 62.3585 19.3741 63.3125 19.3741H68.0285ZM71.7905 16.8181H76.9205V16.2601C76.9205 14.6941 75.7685 13.4161 74.3465 13.4161C72.9425 13.4161 71.7905 14.6941 71.7905 16.2601V16.8181ZM86.0825 22.2361C89.0705 22.2361 91.5005 19.6801 91.5005 16.5481C91.5005 13.3981 89.0705 10.8421 86.0825 10.8421H80.6645V22.2361H86.0825ZM83.5265 19.3741H86.0825C87.5045 19.3741 88.6565 18.1141 88.6565 16.5481C88.6565 14.9821 87.5045 13.7041 86.0825 13.7041H83.5265V19.3741ZM95.2265 22.2361V19.8421H98.7185C101.166 19.8421 102.984 17.7721 102.984 15.3961C102.984 13.0201 101.166 10.9321 98.7185 10.9321H92.4005V22.2361H95.2265ZM95.2265 17.0161H98.7185C99.5825 17.0161 100.158 16.1881 100.158 15.3961C100.158 14.6041 99.5825 13.7581 98.7185 13.7581H95.2265V17.0161ZM106.746 22.2361V17.9701H111.174V22.2361H114.036V10.8421H111.174V15.1081H106.746V10.8421H103.884V22.2361H106.746ZM126.654 16.6021C126.654 19.8421 124.098 22.6141 120.804 22.6141C117.51 22.6141 114.936 19.8421 114.936 16.6021C114.936 13.3441 117.51 10.5901 120.804 10.5901C124.098 10.5901 126.654 13.3441 126.654 16.6021ZM120.804 19.7701C119.058 19.7701 117.762 18.2761 117.762 16.6021C117.762 14.9101 119.076 13.4161 120.804 13.4161C122.532 13.4161 123.828 14.9101 123.828 16.6021C123.828 18.2761 122.532 19.7701 120.804 19.7701ZM149.352 22.2361V19.3741H144.636C143.682 19.3741 142.854 18.7981 142.422 17.9701H147.21V15.1081H142.422C142.854 14.2981 143.682 13.7041 144.636 13.7041H149.352V10.8421H144.636C141.54 10.8421 139.218 13.5241 139.218 16.5481C139.218 19.5541 141.54 22.2361 144.636 22.2361H149.352ZM155.922 19.3381C155.346 20.8681 153.744 22.2361 152.052 22.2361H150.252V19.4101H152.052C152.52 19.4101 153.114 18.7441 153.258 18.3481L154.95 13.8301C155.544 12.2281 157.254 10.9321 158.982 10.9321H160.962V13.7581H158.982C158.442 13.7581 157.776 14.3341 157.596 14.8201L155.922 19.3381Z" fill="white"/>
<path fill-rule="evenodd" clip-rule="evenodd" d="M16.3925 0L32.785 11.9098L26.5236 31.1803H6.26137L0 11.9098L16.3925 0ZM30.4335 12.6731L16.3925 2.47207L2.35047 12.6731L7.71347 29.1801H25.0705L30.4335 12.6731Z" fill="white"/>
<path fill-rule="evenodd" clip-rule="evenodd" d="M16.3925 6L27.0786 13.7639L22.9969 26.3262H9.78808L5.70634 13.7639L16.3925 6ZM24.7265 14.5271L16.3925 8.47207L8.05748 14.5271L11.2405 24.3261H21.5435L24.7265 14.5271Z" fill="#FF6565"/>
<path fill-rule="evenodd" clip-rule="evenodd" d="M16.3925 13.2361L20.1967 16L18.7436 20.4722H14.0413L12.5882 16L16.3925 13.2361Z" fill="white"/>
</svg>
