<svg width="95" height="66" viewBox="0 0 95 66" fill="none" xmlns="http://www.w3.org/2000/svg">
<path d="M43.0088 0C44.1685 0 45.1092 0.939989 45.1094 2.09961V63.2568C45.1094 64.4166 44.1686 65.3574 43.0088 65.3574C41.8492 65.3572 40.9092 64.4165 40.9092 63.2568V2.09961C40.9094 0.940125 41.8493 0.000221309 43.0088 0ZM51.1914 5.20801C52.351 5.20817 53.291 6.14766 53.291 7.30762V58.0498C53.291 59.2095 52.351 60.1492 51.1914 60.1494C50.0316 60.1494 49.0909 59.2096 49.0908 58.0498V7.30762C49.0909 6.14785 50.0316 5.20801 51.1914 5.20801ZM34.8271 14.5547C35.9869 14.5547 36.9277 15.4955 36.9277 16.6553V48.7021C36.9277 49.8619 35.9869 50.8027 34.8271 50.8027C33.6676 50.8025 32.7275 49.8618 32.7275 48.7021V16.6553C32.7275 15.4956 33.6676 14.5549 34.8271 14.5547ZM59.373 15.623C60.5325 15.6232 61.4724 16.5632 61.4727 17.7227V47.6338C61.4727 48.7935 60.5327 49.7342 59.373 49.7344C58.2132 49.7344 57.2725 48.7936 57.2725 47.6338V17.7227C57.2727 16.5631 58.2134 15.623 59.373 15.623ZM26.6455 20.6973C27.8056 20.6973 28.7451 21.6378 28.7451 22.7979V42.5605C28.7449 43.7201 27.8051 44.6601 26.6455 44.6602C25.4859 44.6602 24.5452 43.7201 24.5449 42.5605V22.7979C24.5449 21.6381 25.4857 20.6973 26.6455 20.6973ZM67.5547 21.8984C68.7145 21.8984 69.6553 22.8392 69.6553 23.999V41.3584C69.6551 42.518 68.7144 43.458 67.5547 43.458C66.3951 43.4579 65.4553 42.5179 65.4551 41.3584V23.999C65.4551 22.8393 66.395 21.8986 67.5547 21.8984ZM18.4639 24.1689C19.6236 24.169 20.5635 25.1098 20.5635 26.2695V39.0879C20.5635 40.2477 19.6236 41.1884 18.4639 41.1885C17.3041 41.1885 16.3643 40.2477 16.3643 39.0879V26.2695C16.3643 25.1097 17.3041 24.1689 18.4639 24.1689ZM75.7363 24.5703C76.8961 24.5703 77.8369 25.5102 77.8369 26.6699V38.6875C77.8369 39.8473 76.8961 40.7881 75.7363 40.7881C74.5767 40.7878 73.6367 39.8471 73.6367 38.6875V26.6699C73.6368 25.5103 74.5768 24.5706 75.7363 24.5703ZM2.09961 27.1074C3.25939 27.1074 4.20016 28.047 4.2002 29.207V36.1504C4.2002 37.3102 3.25941 38.251 2.09961 38.251C0.939989 38.2508 0 37.3101 0 36.1504V29.207C3.68465e-05 28.0474 0.940012 27.1076 2.09961 27.1074ZM10.2822 27.1074C11.4422 27.1076 12.3818 28.0471 12.3818 29.207V36.1504C12.3818 37.3101 11.4419 38.2508 10.2822 38.251C9.12243 38.251 8.18164 37.3102 8.18164 36.1504V29.207C8.18168 28.0473 9.12245 27.1074 10.2822 27.1074ZM83.918 27.1074C85.0777 27.1074 86.0185 28.047 86.0186 29.207V36.1504C86.0186 37.3102 85.0778 38.251 83.918 38.251C82.7584 38.2507 81.8184 37.31 81.8184 36.1504V29.207C81.8184 28.0474 82.7584 27.1077 83.918 27.1074ZM92.0996 27.1074C93.2594 27.1074 94.2002 28.047 94.2002 29.207V36.1504C94.2002 37.3102 93.2594 38.251 92.0996 38.251C90.94 38.2508 90 37.3101 90 36.1504V29.207C90 28.0474 90.94 27.1076 92.0996 27.1074Z" fill="#FF6565"/>
</svg>
